<?xml version="1.0"?>
<svg width="640" height="480" xmlns="http://www.w3.org/2000/svg" xmlns:svg="http://www.w3.org/2000/svg">
 <!-- Created with SVG-edit - https://github.com/SVG-Edit/svgedit-->
 <g class="layer">
  <title>Layer 1</title>
  <path d="m157.786795,117.348087l319.451375,0l0,0c41.849039,0 75.774307,53.808268 75.774307,120.184098c0,66.375806 -33.925284,120.184051 -75.774307,120.184051l-319.451375,0l0,0c-41.848992,0 -75.774307,-53.808245 -75.774307,-120.184051c0,-66.375853 33.925315,-120.184098 75.774307,-120.184098z" fill="#00007f" id="svg_5" stroke="#d1c8c8" stroke-width="5"/>
  <text fill="#bfbfbf" font-family="serif" font-size="24" id="svg_6" stroke="#d1c8c8" stroke-dasharray="null" stroke-linecap="null" stroke-linejoin="null" stroke-width="0" text-anchor="middle" transform="matrix(6.08641 0 0 4.19797 608.226 -386.865)" x="-42.70143" xml:space="preserve" y="148.897461">SVG</text>
  <text fill="#bfbfbf" font-family="serif" font-size="24" id="svg_7" stroke="#d1c8c8" stroke-dasharray="null" stroke-linecap="null" stroke-linejoin="null" stroke-width="0" style="cursor: move;" text-anchor="middle" transform="matrix(1.0141 0 0 1.58431 -195.591 -160.547)" x="516.358787" xml:space="preserve" y="293.63165">SCALABLE VECTOR GRAPHICS</text>
  <path d="m176.60705,209.414258l10.45618,-4.88496c-0.205513,-1.810699 -0.602654,-3.56742 -1.099773,-5.292245l-11.614274,-1.420589c-1.005348,-2.13947 -2.332853,-4.124369 -3.893642,-5.944882l4.426866,-9.620256c-1.455256,-1.253749 -3.027154,-2.39709 -4.682369,-3.449651l-9.861858,5.468899c-2.313412,-1.074642 -4.804566,-1.889211 -7.420694,-2.414265l-3.563155,-9.7552c-1.010903,-0.066245 -2.021806,-0.137397 -3.052149,-0.137397s-2.038469,0.068699 -3.052149,0.137397l-3.529829,9.669327c-2.685558,0.507879 -5.232256,1.332262 -7.603989,2.419172l-9.709111,-5.387932c-1.652437,1.052561 -3.224336,2.195901 -4.679592,3.449651l4.304669,9.352822c-1.677432,1.901479 -3.082698,3.996786 -4.138037,6.256479l-11.247683,1.373972c-0.494343,1.724825 -0.89426,3.479093 -1.096996,5.292245l10.095143,4.718121c0.113865,2.485417 0.580436,4.892321 1.405266,7.159375l-7.615098,7.439076c0.885929,1.621777 1.871837,3.196938 3.013268,4.673958l11.21158,-2.127203c1.83851,1.766535 3.932523,3.314707 6.243159,4.595445l-0.424912,10.135496c1.841287,0.733603 3.754782,1.346983 5.726598,1.837687l7.092983,-8.05491c1.258074,0.142304 2.532812,0.237992 3.832544,0.237992c1.408043,0 2.785537,-0.112862 4.140814,-0.277248l7.129087,8.099073c1.974593,-0.490704 3.885311,-1.104084 5.726598,-1.837687l-0.433244,-10.317056c2.202324,-1.258656 4.199135,-2.765118 5.959884,-4.467862l11.503186,2.18118c1.141432,-1.47702 2.12734,-3.049727 3.013268,-4.673958l-7.862269,-7.681975c0.7554,-2.146831 1.177535,-4.413884 1.299732,-6.75209zm-17.376976,11.735191l-4.957312,2.850992l-3.049372,-4.13909c-1.585784,0.539775 -3.293766,0.866093 -5.093395,0.866093c-7.862269,0 -14.233179,-5.630831 -14.233179,-12.574296c0,-6.945918 6.37091,-12.574296 14.233179,-12.574296c7.859492,0 14.233179,5.628377 14.233179,12.574296c0,3.469279 -1.591339,6.607332 -4.163031,8.8842l3.029931,4.112101z" fill="#00007f" id="svg_8" stroke="#d1c8c8" stroke-dasharray="null" stroke-linecap="null" stroke-linejoin="null" stroke-width="5"/>
  <line fill="none" id="svg_9" stroke="#d1c8c8" stroke-dasharray="null" stroke-linecap="null" stroke-linejoin="null" stroke-width="5" x1="150.49999" x2="505.500002" y1="264.5" y2="267.5"/>
 </g>
</svg>